<mxfile host="app.diagrams.net" modified="2023-08-30T00:12:44.488Z" agent="Mozilla/5.0 (X11; Linux x86_64) AppleWebKit/537.36 (KHTML, like Gecko) Chrome/116.0.0.0 Safari/537.36" version="21.6.9" etag="zsSGl8I0hkvr0Ge8D2Vu" type="github">
  <diagram name="Page-1" id="9nDVL10v3f3tXqXnrMIu">
    <mxGraphModel>
      <root>
        <mxCell id="0" />
        <mxCell id="1" parent="0" />
      </root>
    </mxGraphModel>
  </diagram>
</mxfile>
